<?xml version="1.0" encoding="UTF-8" standalone="no"?>
<svg width="247px" height="358px" viewBox="0 0 247 358" version="1.1" xmlns="http://www.w3.org/2000/svg" xmlns:xlink="http://www.w3.org/1999/xlink">
    <!-- Generator: Sketch 40.3 (33839) - http://www.bohemiancoding.com/sketch -->
    <title>圣诞节</title>
    <desc>Created with Sketch.</desc>
    <defs></defs>
    <g id="Page-1" stroke="none" stroke-width="1" fill="none" fill-rule="evenodd">
        <g id="Artboard" transform="translate(-552.000000, -288.000000)" fill="#709DC9">
            <g id="圣诞节" transform="translate(552.000000, 288.000000)">
                <path d="M245.065,280.093481 C214.9275,270.786408 174.198,202.24061 174.198,202.24061 C206.001,218.702247 243.555,204.183911 222.962,191.727212 C199.9535,177.81154 152.4175,114.582857 152.4175,114.582857 C186.952,132.208377 202.1375,117.991123 188.799,111.370319 C183.342,108.649098 171.212,95.8199168 159.006,81.8917614 C158.3875,82.550846 157.7285,83.1614979 156.9975,83.7077393 C154.4335,85.6155895 151.3725,86.6181969 148.1485,86.6181969 C145.17,86.6181969 142.291,85.7409154 139.7075,84.0018308 L125.421,74.1759778 L111.1565,83.9878502 C108.6565,85.7059639 105.741,86.6186963 102.7075,86.6186963 C99.525,86.6186963 96.485,85.62957 93.8785,83.7297087 C93.135,83.1824688 92.4675,82.550846 91.856,81.8847712 C79.656,95.8204161 67.5125,108.649598 62.0415,111.370818 C48.718,117.992122 63.902,132.207878 98.444,114.583356 C98.444,114.583356 50.888,177.81154 27.8855,191.727712 C7.3,204.184411 44.855,218.702746 76.6565,202.24111 C76.6565,202.24111 35.927,270.786907 5.7965,280.093981 C-20.254,288.145798 46.2875,331.04172 112.505,287.913121 C106.7035,352.524882 99.645,354.719334 98.753,354.719334 C97.3555,354.719334 96.2455,355.849265 96.2455,357.231345 C96.2455,358.612926 97.355,359.727878 98.753,359.727878 L152.1035,359.727878 C153.487,359.727878 154.6105,358.612427 154.6105,357.231345 C154.6105,355.849764 153.487,354.719334 152.1035,354.719334 C151.1975,354.719334 144.1385,352.524882 138.344,287.90613 C204.5675,331.047712 271.108,288.1443 245.065,280.093481 L245.065,280.093481 Z M61.5555,289.8 C55.866,289.8 51.273,285.206879 51.273,279.531262 C51.273,273.856144 55.8665,269.263024 61.5555,269.263024 C67.23,269.263024 71.8315,273.857143 71.8315,279.531262 C71.8315,285.205881 67.2305,289.8 61.5555,289.8 L61.5555,289.8 Z M75.602,191.214924 C69.9275,191.214924 65.3195,186.621304 65.3195,180.946685 C65.3195,175.280055 69.927,170.678447 75.602,170.678447 C81.2705,170.678447 85.8845,175.279556 85.8845,180.946685 C85.885,186.620804 81.271,191.214924 75.602,191.214924 L75.602,191.214924 Z M112.6235,228.730818 C106.9485,228.730818 102.334,224.137198 102.334,218.46258 C102.334,212.79595 106.9485,208.194341 112.6235,208.194341 C118.3055,208.194341 122.906,212.794951 122.906,218.46258 C122.9055,224.137198 118.3055,228.730818 112.6235,228.730818 L112.6235,228.730818 Z M129.4235,141.50147 C123.749,141.50147 119.155,136.90785 119.155,131.226241 C119.155,125.559612 123.7495,120.958003 129.4235,120.958003 C135.113,120.958003 139.706,125.558613 139.706,131.226241 C139.7065,136.907351 135.1125,141.50147 129.4235,141.50147 L129.4235,141.50147 Z M153.183,258.995784 C147.502,258.995784 142.894,254.394674 142.894,248.727046 C142.894,243.060416 147.502,238.458807 153.183,238.458807 C158.8585,238.458807 163.4585,243.059917 163.4585,248.727046 C163.4585,254.394674 158.8595,258.995784 153.183,258.995784 L153.183,258.995784 Z M159.6035,187.785687 C153.922,187.785687 149.321,183.191567 149.321,177.517448 C149.321,171.850319 153.9215,167.24871 159.6035,167.24871 C165.293,167.24871 169.886,171.84982 169.886,177.517448 C169.886,183.191567 165.2925,187.785687 159.6035,187.785687 L159.6035,187.785687 Z M201.7935,294.064078 C196.119,294.064078 191.517,289.470957 191.517,283.795839 C191.517,278.12871 196.118,273.527101 201.7935,273.527101 C207.489,273.527101 212.061,278.128211 212.061,283.795839 C212.0615,289.470458 207.489,294.064078 201.7935,294.064078 L201.7935,294.064078 Z" id="Fill-1"></path>
                <path d="M108.002,46.4724549 L100.4515,71.0837725 C100.3805,71.3568932 100.4515,71.627018 100.4645,71.9046325 C100.514,72.5846879 100.7385,73.2437725 101.309,73.6716782 C101.716,73.9592788 102.1865,74.1065742 102.678,74.1135645 L102.7065,74.1135645 C103.156,74.1135645 103.634,73.9727601 104.027,73.7066297 L125.4205,58.991068 L146.8345,73.7066297 C147.2275,73.9727601 147.698,74.1135645 148.1475,74.1135645 C148.6465,74.1135645 149.1165,73.9662691 149.5385,73.6716782 C150.1135,73.2437725 150.3395,72.5846879 150.3815,71.9046325 C150.3955,71.627018 150.473,71.3568932 150.3955,71.0837725 L142.859,46.4724549 L163.6065,30.9300416 C164.4145,30.3303745 164.7375,29.2923162 164.442,28.3346463 C164.1125,27.3884605 163.2415,26.7323717 162.237,26.7109015 L136.1855,26.1846325 L127.645,1.87839112 C127.3085,0.93220527 126.423,0.315062413 125.4175,0.315062413 C124.4355,0.315062413 123.5295,0.93220527 123.2125,1.87839112 L114.6515,26.1846325 L88.616,26.7109015 C87.6185,26.7323717 86.7265,27.3869626 86.41,28.3346463 C86.108,29.2923162 86.4375,30.3303745 87.246,30.9300416 L108.002,46.4724549" id="Fill-2"></path>
            </g>
        </g>
    </g>
</svg>