<?xml version="1.0" encoding="UTF-8" standalone="no"?>
<svg width="236px" height="200px" viewBox="0 0 236 200" version="1.1" xmlns="http://www.w3.org/2000/svg" xmlns:xlink="http://www.w3.org/1999/xlink">
    <!-- Generator: Sketch 40.3 (33839) - http://www.bohemiancoding.com/sketch -->
    <title>跨年</title>
    <desc>Created with Sketch.</desc>
    <defs></defs>
    <g id="Page-1" stroke="none" stroke-width="1" fill="none" fill-rule="evenodd">
        <g id="Artboard" transform="translate(-563.000000, -368.000000)">
            <g id="跨年" transform="translate(563.000000, 368.000000)">
                <path id="Fill-1" fill="#272536"></path>
                <path d="M154.548231,51.789404 C156.781475,51.789404 158.592168,49.9827815 158.592168,47.7549669 L158.592168,4.25960265 C158.592168,2.03178808 156.781475,0.225496689 154.548231,0.225496689 C152.314324,0.225496689 150.503962,2.03178808 150.503962,4.25960265 L150.503962,47.7546358 C150.503962,49.9827815 152.314324,51.789404 154.548231,51.789404" id="Fill-2" fill="#5382AF"></path>
                <path d="M138.584588,50.1453642 C139.297912,52.2566225 141.591899,53.3910596 143.708303,52.6791391 C145.824706,51.9675497 146.961908,49.6788079 146.248584,47.5672185 L132.318029,6.35165563 C131.604374,4.24039735 129.310387,3.10596026 127.193983,3.81788079 C125.077912,4.52980132 123.940046,6.81821192 124.653702,8.92980132 L138.584588,50.1453642" id="Fill-3" fill="#5382AF"></path>
                <path d="M170.287155,116.422517 C169.573832,114.311258 167.279845,113.17649 165.163109,113.888411 C163.047038,114.600662 161.909836,116.889073 162.622828,118.999669 L176.553382,160.215563 C177.267038,162.327152 179.561357,163.461258 181.677761,162.749669 C183.7935,162.038079 184.931366,159.749338 184.21771,157.638079 L170.287155,116.422517" id="Fill-4" fill="#5382AF"></path>
                <path d="M125.906748,61.1016556 C127.478782,62.6844371 130.039311,62.6953642 131.625286,61.1268212 C133.211592,59.5586093 133.222546,57.0043046 131.650513,55.4218543 L100.955361,24.531457 C99.3829958,22.9490066 96.8224664,22.9377483 95.2361597,24.5062914 C93.6501849,26.0748344 93.6392311,28.6288079 95.2109328,30.2112583 L125.906748,61.1016556" id="Fill-5" fill="#5382AF"></path>
                <path d="M182.488672,106.634106 C180.916639,105.051325 178.355777,105.040397 176.769471,106.60894 C175.183496,108.177815 175.17221,110.732119 176.744576,112.314238 L207.440059,143.204636 C209.012092,144.787417 211.572622,144.798344 213.158929,143.230464 C214.744903,141.661589 214.756189,139.107285 213.183824,137.525166 L182.488672,106.634106" id="Fill-6" fill="#5382AF"></path>
                <path d="M79.3169958,55.0003311 L119.050676,72.9099338 C121.085756,73.8278146 123.481647,72.9251656 124.401101,70.8950331 C125.320887,68.8645695 124.416038,66.4751656 122.380626,65.5572848 L82.6476092,47.6476821 C80.6121975,46.7301325 78.2166387,47.6327815 77.2968529,49.6629139 C76.3773992,51.6933775 77.2822479,54.0827815 79.3169958,55.0003311" id="Fill-7" fill="#5382AF"></path>
                <path d="M228.898849,112.063576 L189.1655,94.1533113 C187.13042,93.2360927 184.734197,94.1387417 183.815076,96.168543 C182.895622,98.1993377 183.799807,100.589073 185.83555,101.50596 L225.568899,119.416225 C227.603979,120.334106 229.99987,119.431457 230.918992,117.400662 C231.839109,115.37053 230.934261,112.981457 228.898849,112.063576" id="Fill-8" fill="#5382AF"></path>
                <path d="M75.0948109,87.510596 L118.695508,87.7331126 C120.928752,87.744702 122.748739,85.9476821 122.760025,83.7198675 C122.771643,81.4917219 120.969912,79.6764901 118.737,79.6649007 L75.1363025,79.4423841 C72.9027269,79.4311258 71.0827395,81.2281457 71.0714538,83.4559603 C71.0601681,85.6837748 72.8612353,87.4993377 75.0948109,87.510596" id="Fill-9" fill="#5382AF"></path>
                <path d="M232.949756,79.6649007 L189.349723,79.4423841 C187.116479,79.4311258 185.29616,81.2281457 185.284874,83.4559603 C185.273588,85.6837748 187.074655,87.4993377 189.308231,87.510596 L232.908929,87.7331126 C235.14184,87.744702 236.96216,85.9476821 236.973113,83.7198675 C236.985063,81.4917219 235.183664,79.6764901 232.949756,79.6649007" id="Fill-10" fill="#5382AF"></path>
                <path d="M167.164664,54.3112583 C169.20937,55.2082781 171.595634,54.2827815 172.495504,52.2440397 L190.061055,12.4347682 C190.960592,10.3953642 190.032508,8.01456954 187.988798,7.11688742 C185.944424,6.21953642 183.557828,7.14503311 182.657958,9.18410596 L165.092408,48.9933775 C164.19287,51.0327815 165.120622,53.413245 167.164664,54.3112583" id="Fill-11" fill="#5382AF"></path>
                <path d="M142.199336,112.673841 C140.154962,111.776821 137.768366,112.701987 136.868496,114.741722 L119.302945,154.550662 C118.403408,156.590066 119.33116,158.971192 121.375534,159.868543 C123.419576,160.766225 125.806504,159.840397 126.706042,157.801656 L144.271592,117.992053 C145.17113,115.951987 144.242714,113.571854 142.199336,112.673841" id="Fill-12" fill="#5382AF"></path>
                <path d="M177.452588,61.310596 C179.054828,62.8625828 181.615025,62.8258278 183.171458,61.2274834 L213.549945,30.0274834 C215.106378,28.4288079 215.068206,25.8748344 213.46663,24.3225166 C211.864391,22.7705298 209.304193,22.8076159 207.747429,24.4056291 L177.369273,55.6056291 C175.813172,57.2043046 175.850349,59.7582781 177.452588,61.310596" id="Fill-13" fill="#5382AF"></path>
                <path d="M102.707966,141.769536 L131.716567,111.97649 C133.202298,110.450331 133.16645,108.011258 131.636903,106.529139 C130.107025,105.046689 127.661676,105.08245 126.175945,106.608278 L97.1670126,136.400993 C95.6809496,137.927815 95.7171303,140.366556 97.2463445,141.849338 C98.7765546,143.331126 101.221571,143.295695 102.707966,141.769536" id="Fill-14" fill="#5382AF"></path>
                <path d="M184.149996,72.7721854 C184.928046,74.860596 187.255559,75.9248344 189.349723,75.1496689 L230.222597,60.0062914 C232.316761,59.2301325 233.382929,56.907947 232.605874,54.8195364 C231.827824,52.7311258 229.500643,51.6668874 227.406147,52.442053 L186.533605,67.5854305 C184.439109,68.3615894 183.372941,70.6827815 184.149996,72.7721854" id="Fill-15" fill="#5382AF"></path>
                <path d="M124.524248,94.2655629 C123.746529,92.1768212 121.418685,91.1125828 119.324853,91.8880795 L92.9803445,100.818212 C90.8858487,101.594371 89.8193487,103.916556 90.5967353,106.005298 C91.3747857,108.09404 93.7022983,109.158278 95.7964622,108.382781 L122.140639,99.4519868 C124.234803,98.6758278 125.301303,96.3543046 124.524248,94.2655629" id="Fill-16" fill="#5382AF"></path>
                <path d="M73.8646681,156.218874 C74.4551765,155.918874 74.9331597,155.451987 75.2448445,154.860265 C75.8144412,153.769205 75.7145294,152.476821 74.9849412,151.484106 L70.7723824,145.740728 C70.7581092,145.712583 70.749479,145.682781 70.7302269,145.656954 C70.6084076,145.500993 70.5001975,145.337086 70.4072563,145.155298 C70.0444538,144.443377 70.0029622,143.654305 70.2266849,142.94702 C70.2266849,142.94702 70.2253571,142.944371 70.2283445,142.939735 L72.3563655,136.057285 C72.7128613,134.912914 72.3991849,133.680464 71.5427983,132.83245 C70.6784454,131.988742 69.4366849,131.695364 68.2931765,132.069536 L62.0747479,134.115563 C61.0650084,134.524503 59.9434076,134.344371 59.1275168,133.713576 L53.6698782,129.458609 C52.6959874,128.694371 51.3483403,128.565232 50.2433361,129.125828 C49.1462983,129.683113 48.4625168,130.843709 48.5069958,132.079801 L48.7423361,139.054305 C48.7536218,140.056954 48.2454328,141.030795 47.3452311,141.590397 L42.018042,145.411589 C41.0385084,146.112914 40.5439286,147.290728 40.7211807,148.486755 C40.9034118,149.669868 41.7209622,150.647351 42.8565042,151.031457 L49.7859328,153.405298 C49.7905798,153.402649 49.7875924,153.407616 49.7935672,153.407616 C50.4653992,153.650662 51.0519244,154.140397 51.4027773,154.826159 C51.4582101,154.936093 51.4960504,155.045364 51.5392017,155.154305 L53.8102857,162.235762 C54.1880252,163.406623 55.1795084,164.247682 56.3983655,164.429801 C57.5953151,164.604636 58.8457059,164.046026 59.5075798,163.066887 L63.1395882,157.838742 C63.4187437,157.382781 63.8246975,156.99404 64.3365378,156.734106 C64.7929454,156.501987 65.2818824,156.404967 65.7615252,156.418212 L72.3002689,156.568543 C72.8443067,156.58543 73.3840294,156.463245 73.8646681,156.218874" id="Fill-17" fill="#5382AF"></path>
                <path d="M63.1067269,87.7798013 C63.1067269,85.7374172 61.447063,84.0817881 59.3993697,84.0817881 C57.3523403,84.0817881 55.6923445,85.7374172 55.6923445,87.7798013 L55.6923445,95.1572848 C55.6923445,97.1996689 57.3523403,98.855298 59.3993697,98.855298 C61.447063,98.855298 63.1067269,97.1996689 63.1067269,95.1572848 L63.1067269,87.7798013" id="Fill-18" fill="#5382AF"></path>
                <path d="M59.3997017,119.717881 C61.447395,119.717881 63.1070588,118.062252 63.1070588,116.019868 L63.1070588,108.642715 C63.1070588,106.6 61.447395,104.944371 59.3997017,104.944371 C57.3526723,104.944371 55.6926765,106.599669 55.6926765,108.642715 L55.6926765,116.019868 C55.6923445,118.062252 57.3523403,119.717881 59.3997017,119.717881" id="Fill-19" fill="#5382AF"></path>
                <path d="M78.8788445,104.808278 C80.6596639,105.815232 82.9221176,105.190397 83.9318571,103.413576 L87.5774748,96.994702 C88.5862185,95.2182119 87.9605252,92.9615894 86.1793739,91.9539735 C84.3978908,90.9476821 82.1357689,91.5718543 81.1263613,93.3486755 L77.4807437,99.7672185 C76.4716681,101.544702 77.0973613,103.801325 78.8788445,104.808278" id="Fill-20" fill="#5382AF"></path>
                <path d="M75.8692101,110.106291 C74.0883908,109.099669 71.8262689,109.723841 70.8168613,111.501325 L67.1712437,117.919536 C66.1615042,119.696689 66.7878613,121.953311 68.5693445,122.960265 C70.3508277,123.967219 72.6122857,123.343046 73.6216933,121.565563 L77.2673109,115.146689 C78.2770504,113.369536 77.6510252,111.112914 75.8692101,110.106291" id="Fill-21" fill="#5382AF"></path>
                <path d="M36.6925126,92.4245033 L38.6087605,99.5496689 C39.1385252,101.522185 41.1722773,102.692715 43.1499328,102.163245 C45.1272563,101.633775 46.3003067,99.6056291 45.7698782,97.6337748 L43.8539622,90.507947 C43.3232017,88.5357616 41.2901134,87.3652318 39.312458,87.894702 C37.3344706,88.4238411 36.1617521,90.4516556 36.6925126,92.4245033" id="Fill-22" fill="#5382AF"></path>
                <path d="M44.7309286,108.044702 C42.753605,108.573841 41.5808866,110.602318 42.1113151,112.574503 L44.0272311,119.700331 C44.5576597,121.672848 46.5907479,122.842715 48.5680714,122.313245 C50.545395,121.784768 51.7187773,119.756291 51.1883487,117.783775 L49.2724328,110.658609 C48.7416723,108.685762 46.708584,107.515232 44.7309286,108.044702" id="Fill-23" fill="#5382AF"></path>
                <path d="M25.9395504,112.198675 C27.3851176,110.752649 27.3811345,108.410927 25.9312521,106.969205 L20.6940168,101.760596 C19.2444664,100.318543 16.8970378,100.321854 15.4514706,101.768543 C14.0059034,103.214901 14.0095546,105.556623 15.459437,106.998344 L20.6966723,112.206623 C22.1465546,113.648675 24.4936513,113.645695 25.9395504,112.198675" id="Fill-24" fill="#5382AF"></path>
                <path d="M40.7507227,126.928146 C42.195958,125.481457 42.1923067,123.140066 40.7420924,121.698013 L35.505521,116.490066 C34.0556387,115.048344 31.7082101,115.051325 30.2623109,116.498344 C28.8167437,117.944371 28.8207269,120.286093 30.2712731,121.727815 L35.5081765,126.936424 C36.9580588,128.378808 39.3048235,128.374503 40.7507227,126.928146" id="Fill-25" fill="#5382AF"></path>
                <path d="M5.5887521,126.625497 L12.3372773,129.641391 C14.205395,130.477483 16.3988067,129.643046 17.2362731,127.778808 C18.0730756,125.915232 17.2372689,123.727483 15.3688193,122.892053 L8.61996218,119.875828 C6.75184454,119.04106 4.55843277,119.874834 3.72163025,121.738411 C2.88416387,123.602649 3.71997059,125.790066 5.5887521,126.625497" id="Fill-26" fill="#5382AF"></path>
                <path d="M34.4546218,131.422848 L27.7060966,128.40596 C25.8373151,127.571192 23.6442353,128.404967 22.806437,130.269205 C21.9693025,132.132119 22.8057731,134.32053 24.6745546,135.155298 L31.4230798,138.172185 C33.2911975,139.007616 35.4842773,138.173179 36.3217437,136.309272 C37.1585462,134.445033 36.3227395,132.257616 34.4546218,131.422848" id="Fill-27" fill="#5382AF"></path>
                <path d="M91.5892143,160.07351 L84.8403571,157.057616 C82.9722395,156.222517 80.7788277,157.056623 79.9416933,158.920199 C79.1042269,160.784437 79.9403655,162.971192 81.8088151,163.806623 L88.5576723,166.82351 C90.4261218,167.658609 92.6192017,166.824503 93.4566681,164.960265 C94.2938025,163.096689 93.4576639,160.908278 91.5892143,160.07351" id="Fill-28" fill="#5382AF"></path>
                <path d="M110.674685,168.603974 L103.92616,165.587748 C102.05771,164.752318 99.8646303,165.586093 99.0268319,167.450662 C98.1896975,169.31457 99.0261681,171.501987 100.89495,172.337417 L107.643475,175.354305 C109.511592,176.189073 111.704672,175.354967 112.541807,173.49106 C113.378941,171.627152 112.543134,169.439404 110.674685,168.603974" id="Fill-29" fill="#5382AF"></path>
                <path d="M14.9492563,144.056623 C14.8755672,142.015894 13.1561555,140.421523 11.1101218,140.495695 L3.72030252,140.763576 C1.67393697,140.837417 0.0756806723,142.552318 0.149701681,144.592384 C0.224054622,146.634437 1.94313445,148.228477 3.98883613,148.154305 L11.3789874,147.886755 C13.425021,147.813245 15.0232773,146.098013 14.9492563,144.056623" id="Fill-30" fill="#5382AF"></path>
                <path d="M24.8889832,147.397351 L32.2794664,147.12947 C34.3255,147.055629 35.9234244,145.340728 35.8490714,143.299007 C35.7747185,141.257947 34.0556387,139.663576 32.0102689,139.737748 L24.6201176,140.004967 C22.5737521,140.07947 20.9754958,141.794371 21.0495168,143.836424 C21.1238697,145.876821 22.8429496,147.471854 24.8889832,147.397351" id="Fill-31" fill="#5382AF"></path>
                <path d="M94.6871429,144.034106 L87.2973235,144.301987 C85.250958,144.375497 83.6527017,146.090728 83.7273866,148.131457 C83.8017395,150.172848 85.5201555,151.766887 87.566521,151.692715 L94.9563403,151.424834 C97.0027059,151.351325 98.6009622,149.636755 98.5266092,147.595033 C98.4525882,145.554636 96.7338403,143.959934 94.6871429,144.034106" id="Fill-32" fill="#5382AF"></path>
                <path d="M19.2929286,161.168874 C18.5626765,159.261921 16.4197185,158.30596 14.5074538,159.034106 L7.59960084,161.66755 C5.68667227,162.396026 4.72838235,164.533775 5.45896639,166.441391 C6.18955042,168.350331 8.33217647,169.304967 10.2447731,168.57649 L17.1532899,165.943377 C19.0655546,165.215563 20.0238445,163.077815 19.2929286,161.168874" id="Fill-33" fill="#5382AF"></path>
                <path d="M38.8301597,153.725166 C38.0995756,151.816887 35.9566176,150.861589 34.0446849,151.590066 L27.1365,154.222185 C25.2232395,154.950993 24.2656134,157.088079 24.9958655,158.99702 C25.7264496,160.904636 27.8694076,161.860596 29.7823361,161.131788 L36.6901891,158.499007 C38.6027857,157.770861 39.5607437,155.633444 38.8301597,153.725166" id="Fill-34" fill="#5382AF"></path>
                <path d="M22.2574202,174.810265 L16.6626933,179.634106 C15.1132311,180.969536 14.9426176,183.304967 16.2816345,184.849669 C17.6206513,186.395364 19.9614412,186.565563 21.5102395,185.230464 L27.1056303,180.40596 C28.6550924,179.070861 28.8253739,176.735762 27.4863571,175.189404 C26.1476723,173.645033 23.8068824,173.474834 22.2574202,174.810265" id="Fill-35" fill="#5382AF"></path>
                <path d="M37.3341387,171.588742 L42.9288655,166.764901 C44.4783277,165.42947 44.6482773,163.09404 43.3095924,161.549338 C41.9705756,160.00298 39.6297857,159.833775 38.0809874,161.168543 L32.4855966,165.992715 C30.9364664,167.328146 30.7658529,169.663245 32.1052017,171.20894 C33.4432227,172.753642 35.7850084,172.924172 37.3341387,171.588742" id="Fill-36" fill="#5382AF"></path>
                <path d="M82.0036597,134.662583 L87.5983866,129.839073 C89.1478487,128.503311 89.3177983,126.168212 87.9791134,124.622848 C86.6404286,123.077152 84.2989748,122.907616 82.7508403,124.242715 L77.1551176,129.066556 C75.6059874,130.401987 75.4357059,132.737417 76.7750546,134.282781 C78.1127437,135.827815 80.4541975,135.998013 82.0036597,134.662583" id="Fill-37" fill="#5382AF"></path>
                <path d="M40.6521387,186.024503 C38.8102437,185.134768 36.5929328,185.903642 35.7000336,187.74106 L32.4769664,194.381126 C31.5847311,196.218874 32.3541513,198.431126 34.197042,199.321523 C36.0405966,200.211589 38.2572437,199.443377 39.149479,197.605298 L42.3732101,190.965563 C43.2661092,189.127815 42.4953613,186.916225 40.6521387,186.024503" id="Fill-38" fill="#5382AF"></path>
                <path d="M49.7693361,167.249007 C47.9264454,166.358609 45.7097983,167.12649 44.8172311,168.96457 L41.5928361,175.603642 C40.7002689,177.442384 41.4710168,179.653974 43.3145714,180.545033 C45.1561345,181.435099 47.3734454,180.666887 48.2666765,178.828146 L51.4894118,172.189073 C52.3826429,170.350662 51.6122269,168.139073 49.7693361,167.249007" id="Fill-39" fill="#5382AF"></path>
                <path d="M86.5315546,182.367219 C85.3097101,180.728808 82.9871765,180.389735 81.3444412,181.609272 C79.7023697,182.828477 79.3621387,185.145364 80.5843151,186.783775 L85.0003487,192.701325 C86.2231891,194.339404 88.5453908,194.67947 90.1871303,193.459934 C91.8301975,192.239735 92.1700966,189.923179 90.9472563,188.28543 L86.5315546,182.367219" id="Fill-40" fill="#5382AF"></path>
                <path d="M74.0442437,165.632119 C72.8217353,163.993377 70.4992017,163.654305 68.8571303,164.873841 C67.2147269,166.09404 66.8741639,168.410265 68.0966723,170.048675 L72.512042,175.966225 C73.7348824,177.604636 76.057416,177.943709 77.7004832,176.724172 C79.3422227,175.505298 79.6824538,173.187748 78.4599454,171.549338 L74.0442437,165.632119" id="Fill-41" fill="#5382AF"></path>
                <path id="Fill-42" fill="#272536"></path>
                <path id="Fill-43" fill="#272536"></path>
                <path id="Fill-44" fill="#272536"></path>
                <path id="Fill-45" fill="#272536"></path>
            </g>
        </g>
    </g>
</svg>