<?xml version="1.0" encoding="UTF-8" standalone="no"?>
<svg width="79px" height="187px" viewBox="0 0 79 187" version="1.1" xmlns="http://www.w3.org/2000/svg" xmlns:xlink="http://www.w3.org/1999/xlink">
    <!-- Generator: Sketch 40.3 (33839) - http://www.bohemiancoding.com/sketch -->
    <title>Baby</title>
    <desc>Created with Sketch.</desc>
    <defs></defs>
    <g id="Page-1" stroke="none" stroke-width="1" fill="none" fill-rule="evenodd">
        <g id="Artboard" transform="translate(-641.000000, -427.000000)" fill="#9876B4">
            <path d="M680.402523,427.033047 C682.568962,427.033047 684.058292,427.472164 684.870771,428.350139 C685.68325,429.228115 686.157175,430.072391 686.292545,430.882969 C686.427915,432.368813 686.292545,433.449755 685.886176,434.125021 C685.480066,434.800546 685.480066,435.813574 685.886176,437.164623 C686.157175,437.83989 686.597063,438.616768 687.206358,439.494744 C687.815653,440.372719 689.000464,441.081942 690.760792,441.622413 C692.656491,442.162626 694.721337,442.973204 696.95559,444.053888 C699.189585,445.134572 701.254432,446.958179 703.15013,449.524965 C703.691869,450.335542 704.199571,451.280916 704.673496,452.361857 C705.147421,453.442541 705.519753,454.523226 705.790493,455.60391 C706.196862,456.819647 706.467602,457.96773 706.602972,459.048414 L654.201817,459.048414 C654.337445,458.102783 654.540371,457.157409 654.811111,456.211779 C655.08211,455.401201 655.35285,454.523226 655.62359,453.577595 C655.894331,452.631964 656.368255,451.618678 657.045364,450.537993 C658.128583,448.646732 659.821098,446.890781 662.122907,445.269626 C664.424973,443.648728 666.726782,442.500388 669.028591,441.825122 C671.3304,441.149598 672.650582,440.575428 672.989136,440.102612 C673.327691,439.629797 673.835393,438.988229 674.512502,438.177652 C675.053983,437.502127 675.257167,436.590453 675.121797,435.442113 C674.986427,434.294031 674.783242,433.179391 674.512502,432.098706 C674.106134,430.342755 674.613836,429.059362 676.03561,428.248785 C677.457384,427.438207 678.912936,427.033047 680.402523,427.033047 L680.402523,427.033047 Z M716.555131,475.461386 C716.555131,481.270224 713.644027,484.174515 707.821562,484.174515 L652.983227,484.174515 C647.16102,484.174515 644.249658,481.270224 644.249658,475.461386 C644.249658,472.759804 645.095915,470.665834 646.788687,469.179989 C648.481201,467.694145 650.546048,466.950965 652.983227,466.950965 L707.821562,466.950965 C710.80048,466.950965 713.000696,467.795242 714.42247,469.484052 C715.844244,471.172605 716.555131,473.164964 716.555131,475.461386 L716.555131,475.461386 Z M690.354682,492.684935 C694.416561,492.684935 698.241736,492.955299 701.829948,493.495513 C705.418161,494.035984 708.532449,495.116668 711.172812,496.737566 C713.813175,498.35872 715.912058,500.655142 717.469202,503.627088 C719.026088,506.599034 719.804789,510.448956 719.804789,515.176853 L719.804789,595.823524 C719.804789,599.470736 719.432456,602.408983 718.687792,604.63775 C717.942869,606.866774 716.792093,608.589026 715.234949,609.804763 C713.677805,611.020758 711.748329,611.831078 709.44652,612.236496 C707.144711,612.641656 704.436534,612.844364 701.322246,612.844364 L682.433592,612.844364 C679.183934,612.844364 675.731092,612.878063 672.075065,612.945719 C668.419296,613.013117 664.357159,613.047073 659.888912,613.047073 C655.420664,613.047073 651.933786,612.607957 649.42905,611.729981 C646.924057,610.851748 645.028359,609.568613 643.741955,607.879802 C642.45581,606.191249 641.677109,604.164934 641.406368,601.801114 C641.13537,599.437037 641,596.701499 641,593.5945 L641,520.647929 C641,516.054828 641.169406,512.576368 641.507961,510.212548 C641.846257,507.848471 642.489588,505.518093 643.437437,503.221671 C644.385286,500.790196 646.111578,498.898934 648.616571,497.548143 C651.121565,496.197352 653.795706,495.150367 656.639254,494.407445 C659.482543,493.664265 662.122907,493.191707 664.560343,492.988998 C666.997523,492.78629 668.690037,492.684935 669.637886,492.684935 L682.839703,492.684935 C683.652181,492.684935 684.667587,492.718892 685.886176,492.78629 C687.105024,492.853945 688.594354,492.819989 690.354682,492.684935 L690.354682,492.684935 Z M669.028591,523.889982 C669.028591,521.99872 668.351482,520.377822 666.997523,519.026774 C665.643563,517.675983 664.018605,517.000459 662.122907,517.000459 C660.227466,517.000459 658.602508,517.675983 657.248548,519.026774 C655.894589,520.377822 655.21748,521.99872 655.21748,523.889982 L655.21748,581.842027 C655.21748,583.733288 655.894589,585.354186 657.248548,586.705234 C658.602508,588.056025 660.227466,588.731292 662.122907,588.731292 C664.018605,588.731292 665.643563,588.056025 666.997523,586.705234 C668.351482,585.354186 669.028591,583.733288 669.028591,581.842027 L669.028591,523.889982 L669.028591,523.889982 Z" id="Baby"></path>
        </g>
    </g>
</svg>