<?xml version="1.0" encoding="UTF-8" standalone="no"?>
<svg width="431px" height="420px" viewBox="0 0 431 420" version="1.1" xmlns="http://www.w3.org/2000/svg" xmlns:xlink="http://www.w3.org/1999/xlink">
    <!-- Generator: Sketch 40.3 (33839) - http://www.bohemiancoding.com/sketch -->
    <title>Beach</title>
    <desc>Created with Sketch.</desc>
    <defs></defs>
    <g id="Page-1" stroke="none" stroke-width="1" fill="none" fill-rule="evenodd">
        <g id="Artboard" transform="translate(-329.000000, -113.000000)" fill="#C879A9">
            <g id="Beach" transform="translate(329.000000, 113.000000)">
                <path d="M52.4232659,419.968986 C51.1313171,419.968986 49.7321439,419.645707 48.4401951,419.107434 C43.4884256,416.954343 41.335528,411.141101 43.4884256,406.188886 L77.7198122,329.754143 C79.8727098,324.802453 85.685428,322.649362 90.6371976,324.802453 C95.5884415,326.955544 97.741339,332.768786 95.5884415,337.721001 L61.3575805,414.155745 C59.7429073,417.815895 56.1908366,419.968986 52.4232659,419.968986" id="Fill-1"></path>
                <path d="M96.8803902,419.968986 C95.5884415,419.968986 94.1892683,419.645707 92.8973195,419.107434 C87.9460756,416.954343 85.793178,411.141101 87.9460756,406.188886 L122.176937,329.754143 C124.329834,324.802453 130.142552,322.649362 135.094322,324.802453 C140.046091,326.955544 142.198989,332.768786 140.046091,337.721001 L105.814705,414.155745 C104.200032,417.815895 100.647961,419.968986 96.8803902,419.968986" id="Fill-2"></path>
                <path d="M389.997183,419.968986 C386.229612,419.968986 382.677541,417.815895 381.062868,414.155745 L346.832007,337.721001 C344.67911,332.768786 346.832007,327.062778 351.783251,324.802453 C356.735021,322.649362 362.440515,324.802453 364.700637,329.754143 L398.932023,406.188886 C401.084921,411.141101 398.932023,416.847109 393.980254,419.107434 C392.688305,419.753467 391.396882,419.968986 389.997183,419.968986" id="Fill-3"></path>
                <path d="M346.724257,419.968986 C342.956687,419.968986 339.40409,417.815895 337.789417,414.155745 L303.558556,337.721001 C301.405659,332.768786 303.558556,327.062778 308.510326,324.802453 C313.462095,322.649362 319.167063,324.802453 321.427711,329.754143 L355.658572,406.188886 C357.81147,411.141101 355.658572,416.847109 350.706802,419.107434 C349.415379,419.753467 348.01568,419.968986 346.724257,419.968986" id="Fill-4"></path>
                <path d="M407.866338,343.534243 L38.6444061,343.534243 C26.1574951,343.534243 15.9312317,333.307059 15.9312317,320.819024 L15.9312317,287.661627 C15.9312317,282.278899 20.3447768,277.864956 25.7270207,277.864956 L407.866338,277.864956 C420.353249,277.864956 430.579512,288.09214 430.579512,300.580175 L430.579512,320.819024 C430.579512,333.307059 420.353249,343.534243 407.866338,343.534243 L407.866338,343.534243 Z M35.4150598,297.350538 L35.4150598,320.819024 C35.4150598,322.649362 36.9219829,324.048661 38.6444061,324.048661 L407.866338,324.048661 C409.588761,324.048661 411.095684,322.541602 411.095684,320.819024 L411.095684,300.580175 C411.095684,298.857597 409.588761,297.350538 407.866338,297.350538 L35.4150598,297.350538 L35.4150598,297.350538 Z" id="Fill-5"></path>
                <path d="M82.6710561,296.381227 L26.1574951,296.381227 C20.7752512,296.381227 16.3622317,291.96781 16.3622317,286.585081 L16.3622317,243.092215 C16.3622317,230.604706 26.5884951,220.377522 39.0748805,220.377522 L69.5386963,220.377522 C82.0256073,220.377522 92.2518707,230.604706 92.2518707,243.092215 L92.2518707,286.585081 C92.3590951,291.96781 88.0533,296.381227 82.6710561,296.381227 L82.6710561,296.381227 Z M35.9532841,276.89617 L72.8757927,276.89617 L72.8757927,243.199975 C72.8757927,241.477397 71.3683439,239.970338 69.6464463,239.970338 L39.1826305,239.970338 C37.4602073,239.970338 35.9532841,241.477397 35.9532841,243.199975 L35.9532841,276.89617 L35.9532841,276.89617 Z" id="Fill-6"></path>
                <path d="M323.688359,222.853367 C321.104461,222.853367 318.628839,221.669061 316.906416,219.62373 C300.54471,199.277121 282.890529,188.081151 264.483676,186.466333 C240.155828,184.205482 222.502173,199.169362 222.394423,199.384881 C220.4565,201.106934 217.873128,201.752966 215.289756,201.322453 C212.706384,200.89194 210.553487,199.384881 209.261538,197.12403 C193.330306,169.672115 171.80133,155.569262 145.105085,155.246508 C124.975809,155.030989 109.475051,162.782328 109.367301,162.889562 C107.106654,164.073867 104.415532,164.181627 102.047134,163.212841 C99.6792622,162.244055 97.849089,160.305957 97.0958902,157.830113 C89.8834732,135.437647 73.5212415,121.658073 48.4401951,116.813617 C28.5258927,112.937947 10.4417634,116.383104 10.3340134,116.383104 C7.42739146,116.921377 4.41354512,115.952591 2.36839756,113.799499 C0.32272439,111.646408 -0.43047439,108.631765 0.32272439,105.725407 C0.86094878,103.787309 13.1328854,57.3880851 59.6351573,31.8742678 C97.2031146,11.2043805 145.428335,10.3433542 202.910595,29.1829036 C240.801802,41.563179 271.157343,59.0029036 293.224543,81.0720901 C311.201448,98.9428536 323.688359,119.827735 330.362026,143.081227 C341.772488,182.698423 332.407173,215.317547 331.976699,216.716846 C331.11575,219.839249 328.532378,222.099574 325.303032,222.745607 C324.764807,222.853367 324.226583,222.853367 323.688359,222.853367 L323.688359,222.853367 Z M259.531906,168.918323 C261.684804,168.918323 263.837701,169.026083 265.990599,169.241602 C284.505202,170.963655 301.943883,179.68378 318.090615,195.293692 C319.167063,183.34393 319.059313,166.119199 313.462095,147.172416 C299.683235,100.557672 260.716105,66.4314894 197.528351,45.6538423 C144.674611,28.3213517 101.078435,28.8596245 67.9240232,47.0536671 C41.658778,61.4792741 27.9876683,83.9789737 21.6367256,97.7585482 C29.6023415,97.4357947 40.0441049,97.5435544 51.1313171,99.6966458 C79.4417098,104.971615 99.6792622,120.151014 110.22825,143.835019 C118.086641,141.035895 130.680777,137.806258 145.212835,137.914018 C166.526837,138.129011 195.913678,145.98811 219.165077,180.437572 C227.561167,175.485357 241.878251,168.918323 259.531906,168.918323 L259.531906,168.918323 Z" id="Fill-7"></path>
                <path d="M210.983961,38.2257822 C210.015262,38.2257822 209.153788,38.1180225 208.185089,37.7952691 C203.66432,36.2882103 201.188172,31.335995 202.802845,26.8142929 L209.692012,6.25216521 C211.199461,1.73098874 216.150705,-0.745381727 220.672,0.869436796 C225.193295,2.37702128 227.668917,7.32871089 226.054244,11.850413 L219.165077,32.4125407 C217.980878,35.8571715 214.643782,38.2257822 210.983961,38.2257822" id="Fill-8"></path>
                <path d="M216.688929,201.430213 C215.72023,201.430213 214.643782,201.214693 213.675083,200.89194 C209.153788,199.169362 206.893666,194.217146 208.615563,189.803204 C208.938813,188.942178 239.940328,104.541101 219.487801,64.0628786 C214.751532,54.6967209 207.646865,48.6684856 197.851076,45.761602 C187.732562,42.8547184 178.260023,44.0390238 169.217959,49.5295119 C131.434501,72.3524906 114.103571,155.999775 113.888071,156.861327 C112.919372,161.598023 108.398602,164.61214 103.661807,163.643354 C98.9255378,162.674568 95.9116915,158.152866 96.8803902,153.41617 C97.6341146,149.64826 115.933744,61.4792741 160.175368,34.6733917 C173.523754,26.5992991 187.732562,24.7689612 202.695095,29.0751439 C217.227154,33.273567 228.099391,42.4242053 234.988559,56.2043054 C258.778182,103.464556 226.269744,192.064055 224.870045,195.831965 C223.470872,199.277121 220.133776,201.430213 216.688929,201.430213" id="Fill-9"></path>
                <path d="M107.106654,287.98438 C105.70748,287.98438 104.307782,287.661627 103.016359,287.123354 C98.172339,284.862503 96.0194415,279.049262 98.2795634,274.204806 L153.071227,156.538048 C155.331349,151.693592 161.144593,149.540501 165.988612,151.801352 C170.832632,154.062203 172.985529,159.875444 170.724882,164.7199 L115.933744,282.386133 C114.211321,285.939049 110.766474,287.98438 107.106654,287.98438" id="Fill-10"></path>
            </g>
        </g>
    </g>
</svg>