<?xml version="1.0" encoding="UTF-8" standalone="no"?>
<svg width="407px" height="385px" viewBox="0 0 407 385" version="1.1" xmlns="http://www.w3.org/2000/svg" xmlns:xlink="http://www.w3.org/1999/xlink">
    <!-- Generator: Sketch 40.3 (33839) - http://www.bohemiancoding.com/sketch -->
    <title>Ghost</title>
    <desc>Created with Sketch.</desc>
    <defs></defs>
    <g id="Page-1" stroke="none" stroke-width="1" fill="none" fill-rule="evenodd">
        <g id="Artboard" transform="translate(-314.000000, -131.000000)" fill="#9876B4">
            <path d="M635.44252,284.780116 C671.444187,291.593672 669.664087,253.869442 697.734499,259.861595 C728.609331,266.45013 723.204517,331.974088 707.078191,359.535682 C695.436733,320.661172 659.558319,326.841629 638.557434,353.305396 C632.875168,346.531179 629.338569,337.606942 619.870574,334.61716 C586.902525,357.020069 581.962405,439.79874 619.870574,459.20872 C677.268588,453.722732 713.344208,469.55389 719.537321,515.275525 C687.751985,474.107276 626.244635,508.303563 576.266503,509.044715 C465.452361,510.693815 412.690266,431.610409 404.964609,306.582971 C395.447837,297.981315 395.204476,317.536588 383.16336,315.9284 C370.902485,288.299142 329.503347,288.938012 323.98577,322.157637 C305.940355,299.289476 313.703775,239.792289 336.443851,228.713311 C365.752571,229.513734 367.15347,258.22246 401.85022,253.632358 C411.452483,181.462167 470.24143,121.894694 551.349816,132.154367 C614.681324,140.167507 668.568439,204.699067 635.44252,284.780116 L635.44252,284.780116 Z M504.631356,247.402072 C501.867847,229.978461 476.124048,209.799531 457.912372,197.565552 C440.363644,226.815587 470.111358,261.364878 504.631356,247.402072 L504.631356,247.402072 Z M613.641271,228.713311 C593.568724,224.802467 570.657666,243.439299 548.235427,247.402596 C560.627948,280.165886 617.53452,265.406854 613.641271,228.713311 L613.641271,228.713311 Z M464.141675,315.9284 C492.512092,310.550464 512.598801,310.778631 532.662432,325.27278 C535.985042,318.213223 542.109448,313.954095 551.349292,312.813257 C553.963847,316.427221 555.457055,321.163666 554.464206,328.387923 C576.5749,327.657787 576.727525,304.969013 579.380892,284.780641 C561.792303,298.727187 536.999395,283.034503 513.974524,291.010403 C509.793858,288.960042 508.174249,284.351581 507.745745,278.550879 C495.066332,278.329006 492.991995,288.713516 476.599231,284.780641 C471.745127,278.213087 471.029206,267.509142 461.026761,266.091881 C456.268113,279.359694 455.459358,306.693645 464.141675,315.9284 L464.141675,315.9284 Z" id="Ghost"></path>
        </g>
    </g>
</svg>