<?xml version="1.0" encoding="UTF-8" standalone="no"?>
<svg width="26px" height="26px" viewBox="0 0 26 26" version="1.1" xmlns="http://www.w3.org/2000/svg" xmlns:xlink="http://www.w3.org/1999/xlink">
    <!-- Generator: Sketch 40.3 (33839) - http://www.bohemiancoding.com/sketch -->
    <title>gear_1149218_easyicon.net</title>
    <desc>Created with Sketch.</desc>
    <defs></defs>
    <g id="Page-1" stroke="none" stroke-width="1" fill="none" fill-rule="evenodd">
        <g id="Group-14" transform="translate(-162.000000, -31.000000)" fill="#D6EAFE">
            <g id="gear_1149218_easyicon.net" transform="translate(162.000000, 31.000000)">
                <g id="Layer_1">
                    <path d="M24.375,10.5625 L22.431043,10.5625 C22.2009531,9.67062891 21.850207,8.82958984 21.3916016,8.05517578 L22.7674687,6.68088281 L22.7674687,4.38303125 L21.618543,3.23410547 L19.3191172,3.23410547 L17.9448242,4.60839844 C17.1704102,4.15136719 16.3293203,3.79904687 15.4375,3.57053125 L15.4375,1.625 L13.8125,0 L12.1875,0 L10.5625,1.625 L10.5625,3.57058203 C9.67062891,3.79909766 8.82801562,4.15141797 8.05517578,4.60844922 L6.67930859,3.23415625 L4.38145703,3.23415625 L3.23253125,4.38308203 L3.23253125,6.68093359 L4.60682422,8.05522656 C4.14979297,8.82964062 3.80067187,9.67073047 3.56895703,10.5625508 L1.625,10.5625508 L0,12.1875 L0,13.8125 L1.625,15.4375 L3.56895703,15.4375 C3.80067188,16.3293711 4.14979297,17.1704102 4.60682422,17.9448242 L3.23253125,19.3191172 L3.23253125,21.618543 L4.38145703,22.7674687 L6.67930859,22.7674687 L8.05517578,21.3916016 C8.82958984,21.850207 9.67067969,22.2009531 10.5625,22.431043 L10.5625,24.375 L12.1875,26 L13.8125,26 L15.4375,24.375 L15.4375,22.431043 C16.3293711,22.2009531 17.1704102,21.850207 17.9448242,21.3931758 L19.3191172,22.7674687 L21.618543,22.7674687 L22.7674687,21.618543 L22.7674687,19.3191172 L21.3931758,17.9448242 C21.850207,17.1704102 22.2009023,16.3293203 22.431043,15.4375 L24.375,15.4375 L26,13.8125 L26,12.1875 L24.375,10.5625 L24.375,10.5625 Z M13,19.5 C9.410375,19.5 6.5,16.5895742 6.5,13 C6.5,9.41042578 9.41042578,6.5 13,6.5 C16.5895742,6.5 19.5,9.41042578 19.5,13 C19.5,16.5895742 16.589625,19.5 13,19.5 L13,19.5 Z" id="Shape"></path>
                </g>
                <circle id="Oval" cx="13" cy="13" r="4.48275862"></circle>
            </g>
        </g>
    </g>
</svg>