<?xml version="1.0" encoding="UTF-8" standalone="no"?>
<svg width="68px" height="46px" viewBox="0 0 68 46" version="1.1" xmlns="http://www.w3.org/2000/svg" xmlns:xlink="http://www.w3.org/1999/xlink">
    <!-- Generator: Sketch 40.3 (33839) - http://www.bohemiancoding.com/sketch -->
    <title>cloud_1202588_easyicon.net</title>
    <desc>Created with Sketch.</desc>
    <defs></defs>
    <g id="Page-1" stroke="none" stroke-width="1" fill="none" fill-rule="evenodd">
        <g id="Group-14" transform="translate(-69.000000, -131.000000)" fill="#FFFFFF">
            <g id="cloud_1202588_easyicon.net" transform="translate(103.000000, 154.000000) scale(1, -1) translate(-103.000000, -154.000000) translate(69.000000, 131.000000)">
                <g id="Layer_1">
                    <path d="M11.4271075,17.0597689 C11.4254624,16.9635538 11.4234516,16.8675219 11.4234516,16.7711235 C11.4234516,7.57937052 18.8557419,0.127920319 28.0238602,0.127920319 C35.9246559,0.127920319 42.5356452,5.66184861 44.2126129,13.0744462 C45.7764301,12.1967809 47.5776989,11.6942629 49.4972366,11.6942629 C55.4867204,11.6942629 60.3421398,16.5621992 60.3421398,22.5671235 C60.3421398,22.8125179 60.331172,23.0553466 60.315086,23.2967092 C64.7615914,24.9516096 67.9305376,29.2426215 67.9305376,34.2764143 C67.9305376,40.7431713 62.7016667,45.9857052 56.2513548,45.9857052 L14.5989785,45.9857052 C6.53622581,45.9855219 0,39.4324462 0,31.3489084 C0,24.3574582 4.88960215,18.5119761 11.4271075,17.0597689 L11.4271075,17.0597689 Z" id="Shape"></path>
                </g>
            </g>
        </g>
    </g>
</svg>