<?xml version="1.0" encoding="UTF-8" standalone="no"?>
<svg width="92px" height="108px" viewBox="0 0 92 108" version="1.1" xmlns="http://www.w3.org/2000/svg" xmlns:xlink="http://www.w3.org/1999/xlink">
    <!-- Generator: Sketch 40.3 (33839) - http://www.bohemiancoding.com/sketch -->
    <title>gear_1149612_easyicon.net</title>
    <desc>Created with Sketch.</desc>
    <defs></defs>
    <g id="Page-1" stroke="none" stroke-width="1" fill="none" fill-rule="evenodd">
        <g id="Group-14" transform="translate(-32.000000, -117.000000)">
            <g id="gear_1149612_easyicon.net" transform="translate(32.000000, 118.000000)">
                <g id="Layer_10">
                    <path d="M31.1418947,88.6370526 L29.2004211,88.6370526 C28.8362105,86.7065263 28.0534737,84.8753684 26.9107368,83.28 L28.2585263,81.9322105 C28.3898947,81.8008421 28.4635789,81.6235789 28.4635789,81.4370526 C28.4635789,81.2513684 28.3898947,81.0732632 28.2585263,80.9418947 L25.9065263,78.5903158 C25.6332632,78.3170526 25.1898947,78.3170526 24.9162105,78.5903158 L23.5288421,79.9776842 C21.9473684,78.8964211 20.1515789,78.1616842 18.2749474,77.8286316 L18.2749474,75.8576842 C18.2749474,75.4707368 17.9612632,75.1574737 17.5747368,75.1574737 L14.2488421,75.1574737 C13.8623158,75.1574737 13.5486316,75.4707368 13.5486316,75.8576842 L13.5486316,77.8286316 C11.6564211,78.1642105 9.848,78.9077895 8.25768421,80.0021053 L6.90694737,78.6526316 C6.63368421,78.3789474 6.19031579,78.3789474 5.91663158,78.6526316 L3.56505263,81.0046316 C3.43368421,81.136 3.36,81.3136842 3.36,81.4997895 C3.36,81.6858947 3.43368421,81.8635789 3.56505263,81.9949474 L4.88757895,83.3174737 C3.75873684,84.9052632 2.98484211,86.7229474 2.62357895,88.6370526 L0.858526316,88.6370526 C0.472,88.6370526 0.158315789,88.9498947 0.158315789,89.3372632 L0.158315789,92.6627368 C0.158315789,93.0501053 0.472,93.3629474 0.858526316,93.3629474 L2.56505263,93.3629474 C2.88631579,95.2917895 3.63073684,97.1376842 4.74315789,98.7637895 L3.50273684,100.003789 C3.22947368,100.277053 3.22947368,100.720421 3.50273684,100.994105 L5.85473684,103.346526 C5.98610526,103.477895 6.16421053,103.551579 6.34989474,103.551579 C6.53557895,103.551579 6.71368421,103.477474 6.84505263,103.346526 L8.04631579,102.145684 C9.68547368,103.319579 11.5667368,104.112842 13.5490526,104.463579 L13.5490526,106.141474 C13.5490526,106.528421 13.8627368,106.841684 14.2492632,106.841684 L17.5751579,106.841684 C17.9616842,106.841684 18.2753684,106.528421 18.2753684,106.141474 L18.2753684,104.463579 C20.2412632,104.115789 22.1098947,103.331368 23.7410526,102.170947 L24.9789474,103.408421 C25.2416842,103.671158 25.7065263,103.671158 25.9692632,103.408421 L28.3212632,101.056421 C28.5945263,100.782737 28.5945263,100.339789 28.3212632,100.066105 L27.0555789,98.8 C28.1823158,97.1642105 28.9355789,95.3061053 29.2589474,93.3625263 L31.1423158,93.3625263 C31.5288421,93.3625263 31.8425263,93.0496842 31.8425263,92.6623158 L31.8425263,89.3368421 C31.8421053,88.9498947 31.5284211,88.6370526 31.1418947,88.6370526 L31.1418947,88.6370526 Z M16,98.3814737 C11.9233684,98.3814737 8.61852632,95.0766316 8.61852632,91 C8.61852632,86.9233684 11.9233684,83.6185263 16,83.6185263 C20.0766316,83.6185263 23.3814737,86.9229474 23.3814737,91 C23.3814737,95.0770526 20.0766316,98.3814737 16,98.3814737 L16,98.3814737 Z M18.8008421,91 C18.8008421,92.5469474 17.5465263,93.8008421 16,93.8008421 C14.4534737,93.8008421 13.1991579,92.5469474 13.1991579,91 C13.1991579,89.4530526 14.4534737,88.1991579 16,88.1991579 C17.5465263,88.1991579 18.8008421,89.4530526 18.8008421,91 L18.8008421,91 Z" id="Shape" fill="#D6EAFE"></path>
                    <g id="Group-3" transform="translate(29.000000, 0.000000)" stroke="#F0C3DE" stroke-width="2">
                        <path d="M31,0 C31.672,0 32.339,0.021 33,0.063" id="Shape"></path>
                        <path d="M35.007,0 C50.228,1.971 61.986,14.983 61.986,30.742 C61.986,46.846 49.707,60.082 34,61.597" id="Shape" stroke-dasharray="4.0593,2.0296"></path>
                        <path d="M33,62 C32.339,62.042 31.672,62.063 31,62.063" id="Shape"></path>
                        <path d="M31,0 C13.879,0 0,13.879 0,31 C0,37.713 2.134,43.926 5.759,49 L11.379,54.621" id="Shape"></path>
                        <polyline id="Shape" points="12 44 12 55 1 55"></polyline>
                    </g>
                </g>
            </g>
        </g>
    </g>
</svg>