<?xml version="1.0" encoding="UTF-8" standalone="no"?>
<svg width="29px" height="26px" viewBox="0 0 29 26" version="1.1" xmlns="http://www.w3.org/2000/svg" xmlns:xlink="http://www.w3.org/1999/xlink">
    <!-- Generator: Sketch 40.3 (33839) - http://www.bohemiancoding.com/sketch -->
    <title>plug_1153965_easyicon.net</title>
    <desc>Created with Sketch.</desc>
    <defs></defs>
    <g id="Page-1" stroke="none" stroke-width="1" fill="none" fill-rule="evenodd">
        <g id="Group-14" transform="translate(-204.000000, -117.000000)" fill="#DFCDEE">
            <g id="plug_1153965_easyicon.net" transform="translate(204.000000, 117.000000)">
                <g id="Layer_7">
                    <path d="M20.9807047,11.2276213 L20.9807047,23.5224468 C20.9807047,24.5314737 20.162564,25.350013 19.1531386,25.350013 C18.1437132,25.350013 17.3255725,24.5314737 17.3255725,23.5224468 L17.3255725,22.9828645 C17.1625819,23.0075721 16.9972004,23.0243095 16.8270367,23.0243095 L11.1442864,23.0243095 C9.30914857,23.0243095 7.82151135,21.5366723 7.82151135,19.7015345 L7.82151135,18.9371926 L6.39564315,18.9371926 C5.77556184,18.9371926 5.51254535,18.6155952 5.40136111,18.1333983 C2.21089135,17.4348106 -0.211649957,13.9801288 2.02996788,10.8040054 C2.97204514,9.46939592 4.98451982,8.00566929 4.31183521,6.14383133 C3.63516551,4.27043658 1.4919796,3.20681382 0.251019965,1.74069613 C-0.573895399,0.766738089 0.828460719,-0.650362894 1.65975224,0.331963856 C2.90270442,1.8000741 4.70277336,2.8007323 5.70383007,4.47845872 C6.62398929,6.02029328 6.68496129,7.91042544 5.65162528,9.42237176 C4.77291109,10.707566 2.94255541,12.0278291 3.16970602,13.765332 C3.32671889,14.9648466 4.30625607,15.8061008 5.42606872,16.134473 L5.42686574,16.0902384 C5.55199782,15.6666224 5.82099196,15.3924476 6.39524464,15.3924476 L7.82111284,15.3924476 L7.82111284,15.0489322 C7.82111284,13.2141929 9.30875006,11.7261571 11.1438879,11.7261571 L16.8266381,11.7261571 C16.9968019,11.7261571 17.1621834,11.7432931 17.325174,11.7676022 L17.325174,11.2280198 C17.325174,10.2189929 18.1433147,9.40045372 19.1527401,9.40045372 C20.1621655,9.40045372 20.9807047,10.2185944 20.9807047,11.2276213 L20.9807047,11.2276213 Z M28.0466826,13.9633914 C28.0466826,13.2476677 27.4660538,12.6674374 26.7507286,12.6674374 L21.5453931,12.6674374 L21.5453931,15.2593454 L26.7507286,15.2593454 C27.4664523,15.2593454 28.0466826,14.6795135 28.0466826,13.9633914 L28.0466826,13.9633914 Z M26.7507286,19.4022536 L21.5453931,19.4022536 L21.5453931,21.9941616 L26.7507286,21.9941616 C27.4660538,21.9941616 28.0466826,21.4139313 28.0466826,20.6982076 C28.0466826,19.9824839 27.4664523,19.4022536 26.7507286,19.4022536 L26.7507286,19.4022536 Z" id="Shape"></path>
                </g>
            </g>
        </g>
    </g>
</svg>