<?xml version="1.0" encoding="UTF-8" standalone="no"?>
<svg width="22px" height="22px" viewBox="0 0 22 22" version="1.1" xmlns="http://www.w3.org/2000/svg" xmlns:xlink="http://www.w3.org/1999/xlink">
    <!-- Generator: Sketch 40.3 (33839) - http://www.bohemiancoding.com/sketch -->
    <title>gear_1149221_easyicon.net</title>
    <desc>Created with Sketch.</desc>
    <defs></defs>
    <g id="Page-1" stroke="none" stroke-width="1" fill="none" fill-rule="evenodd">
        <g id="Group-14" transform="translate(-169.000000, -253.000000)" fill="#DFCDEE">
            <g id="gear_1149221_easyicon.net" transform="translate(169.000000, 253.000000)">
                <g id="Layer_1">
                    <path d="M22,12.375 L22,9.625 L19.0284531,9.12952734 C18.8216445,8.23659375 18.4698594,7.40269922 17.9985352,6.64675 L19.7508438,4.19482422 L17.8065078,2.25048828 L15.35325,4.00146484 C14.5972578,3.53147266 13.7634063,3.17835547 12.8704727,2.97021484 L12.375,0 L9.625,0 L9.12952734,2.97021484 C8.23792578,3.17835547 7.40269922,3.53151562 6.64675,4.00146484 L4.19349219,2.25048828 L2.24915625,4.19482422 L4.00146484,6.64675 C3.53014063,7.40141016 3.17835547,8.23659375 2.97154688,9.12952734 L0,9.625 L0,12.375 L2.97154688,12.8704727 C3.17835547,13.7634063 3.53014063,14.5973008 4.00146484,15.35325 L2.24915625,17.8065078 L4.19349219,19.7508438 L6.64808203,17.9985352 C7.40274219,18.4698594 8.23792578,18.8216445 9.12952734,19.0284531 L9.625,22 L12.375,22 L12.8704727,19.0284531 C13.7620742,18.8216445 14.5973008,18.4698594 15.35325,17.9985352 L17.8065078,19.7508438 L19.7508438,17.8065078 L17.9985352,15.35325 C18.4698594,14.5972578 18.8216445,13.7620742 19.0284531,12.8704727 L22,12.375 L22,12.375 Z M11,16.5 C7.962625,16.5 5.5,14.037332 5.5,11 C5.5,7.96266797 7.96266797,5.5 11,5.5 C14.037332,5.5 16.5,7.96266797 16.5,11 C16.5,14.037332 14.037375,16.5 11,16.5 L11,16.5 Z" id="Shape"></path>
                </g>
            </g>
        </g>
    </g>
</svg>