<?xml version="1.0" encoding="UTF-8" standalone="no"?>
<svg width="476px" height="317px" viewBox="0 0 476 317" version="1.1" xmlns="http://www.w3.org/2000/svg" xmlns:xlink="http://www.w3.org/1999/xlink">
    <!-- Generator: Sketch 40.3 (33839) - http://www.bohemiancoding.com/sketch -->
    <title>双十一</title>
    <desc>Created with Sketch.</desc>
    <defs></defs>
    <g id="Page-1" stroke="none" stroke-width="1" fill="none" fill-rule="evenodd">
        <g id="Artboard" transform="translate(-318.000000, -252.000000)" fill="#5382AF">
            <g id="双十一" transform="translate(318.000000, 252.000000)">
                <path d="M412.806356,0.246168498 C412.744244,0.246168498 412.682712,0.246168498 412.62002,0.246749084 C412.62002,0.246749084 388.085122,0.438923077 363.1404,79.6593132 L112.394629,79.6593132 C87.4504878,0.438342491 62.9155902,0.246749084 62.9155902,0.246749084 C62.8558,0.246749084 62.7884634,0.246168498 62.7292537,0.246168498 C16.5299707,0.237459707 0.00986829268,71.7041227 0.00986829268,99.7998443 L0.00986829268,245.194855 C0.00986829268,310.829531 90.1474341,316.7428 90.1474341,316.7428 L385.387595,316.7428 C385.387595,316.7428 475.525741,310.829531 475.525741,245.194855 L475.525741,99.7998443 C475.525741,71.7064451 458.999254,0.246168498 412.806356,0.246168498 L412.806356,0.246168498 Z M456.517088,245.194855 C456.517088,255.493291 453.498551,264.054033 447.288493,271.365934 C441.840615,277.779668 433.905346,283.305106 423.703854,287.787811 C406.156288,295.499156 387.909234,297.43483 384.62019,297.731509 L90.9154195,297.731509 C87.6263756,297.43541 69.379322,295.499156 51.8317561,287.787811 C41.6302634,283.305106 33.6949951,277.779668 28.2471171,271.365934 C22.0370585,264.054033 19.018522,255.493872 19.018522,245.194855 L19.018522,99.7998443 C19.018522,89.4154817 22.2872488,66.9119652 31.2911951,47.4774267 C35.5699707,38.2443663 40.6742,30.8413132 46.0524195,26.0694762 C50.5465561,22.082011 55.0830683,19.9228114 60.1547902,19.3898333 C64.1172,22.1522619 78.4378341,35.1068791 94.2636732,85.3699579 C96.7562878,93.2862491 104.095976,98.671185 112.394629,98.671185 L363.1404,98.671185 C371.439054,98.671185 378.778161,93.2868297 381.271356,85.3699579 C397.096615,35.1103626 411.415507,22.1545842 415.379078,19.3904139 C420.449639,19.9251337 424.985571,22.0854945 429.479127,26.0729597 C434.858507,30.8453773 439.963317,38.249011 444.242093,47.482652 C453.248361,66.9177711 456.517088,89.417804 456.517088,99.7998443 L456.517088,245.194855 L456.517088,245.194855 Z" id="Fill-1"></path>
                <polyline id="Fill-2" points="108.381717 130.799077 92.3596732 130.799077 92.3596732 156.250229 108.381717 156.250229 108.381717 273.611641 133.829722 273.611641 133.829722 130.799077 108.381717 130.799077"></polyline>
                <polyline id="Fill-3" points="171.997956 130.799077 155.975332 130.799077 155.975332 156.250229 171.997956 156.250229 171.997956 273.611641 197.44538 273.611641 197.44538 130.799077 171.997956 130.799077"></polyline>
                <polyline id="Fill-4" points="275.902951 130.799077 259.880327 130.799077 259.880327 156.250229 275.902951 156.250229 275.902951 273.611641 301.350376 273.611641 301.350376 130.799077 275.902951 130.799077"></polyline>
                <polyline id="Fill-5" points="356.01259 130.799077 323.496566 130.799077 323.496566 156.250229 339.51861 156.250229 339.51861 273.611641 364.966034 273.611641 364.966034 130.799077 356.01259 130.799077"></polyline>
                <polygon id="Fill-6" points="221.195459 273.611641 246.995239 273.611641 246.995239 248.16107 221.195459 248.16107"></polygon>
            </g>
        </g>
    </g>
</svg>