<?xml version="1.0" encoding="UTF-8" standalone="no"?>
<svg width="208px" height="139px" viewBox="0 0 208 139" version="1.1" xmlns="http://www.w3.org/2000/svg" xmlns:xlink="http://www.w3.org/1999/xlink">
    <!-- Generator: Sketch 40.3 (33839) - http://www.bohemiancoding.com/sketch -->
    <title>国庆节</title>
    <desc>Created with Sketch.</desc>
    <defs></defs>
    <g id="Page-1" stroke="none" stroke-width="1" fill="none" fill-rule="evenodd">
        <g id="Artboard" transform="translate(-548.000000, -452.000000)" fill="#5382AF">
            <path d="M548,590.460066 L755.419848,590.460066 L755.419848,452 L548,452 L548,590.460066 Z M594.876772,503.64335 L582.690982,495.070637 L570.63464,503.903062 L575.042502,489.355707 L563.245371,480.652979 L578.023909,480.652979 L582.716935,466.391338 L587.487503,480.782994 L602.395804,480.652979 L590.339463,489.87513 L594.876772,503.64335 L594.876772,503.64335 Z M619.196762,521.567595 L616.08559,517.541268 L611.496376,519.099856 L614.348335,514.969517 L611.366612,510.942873 L616.240991,512.397767 L619.11922,508.397125 L619.170809,513.358923 L623.967646,514.891508 L619.170809,516.528106 L619.196762,521.567595 L619.196762,521.567595 Z M619.222714,468.053938 L619.145172,472.911725 L616.215354,468.859394 L611.418517,470.339974 L614.400241,466.209635 L611.600187,462.156987 L616.292896,463.793585 L619.352478,459.79326 L619.27462,464.884755 L624.019235,466.49535 L619.222714,468.053938 L619.222714,468.053938 Z M628.919567,473.457468 L631.927243,477.405787 L636.671858,475.743504 L633.819899,479.951852 L636.905434,483.900171 L631.979149,482.575608 L629.230684,486.601936 L629.023378,481.588449 L624.200905,480.159558 L628.971473,478.366943 L628.919567,473.457468 L628.919567,473.457468 Z M635.42739,506.396804 L631.201198,503.539339 L627.312076,506.474813 L628.712261,501.669032 L624.615833,498.785564 L629.697518,498.629547 L631.201198,493.927778 L632.782736,498.629547 L637.812832,498.603544 L633.767993,501.64303 L635.42739,506.396804 L635.42739,506.396804 Z" id="国庆节"></path>
        </g>
    </g>
</svg>