<?xml version="1.0" encoding="UTF-8" standalone="no"?>
<svg width="257px" height="245px" viewBox="0 0 257 245" version="1.1" xmlns="http://www.w3.org/2000/svg" xmlns:xlink="http://www.w3.org/1999/xlink">
    <!-- Generator: Sketch 40.3 (33839) - http://www.bohemiancoding.com/sketch -->
    <title>情人节</title>
    <desc>Created with Sketch.</desc>
    <defs></defs>
    <g id="Page-1" stroke="none" stroke-width="1" fill="none" fill-rule="evenodd">
        <g id="Artboard" transform="translate(-538.000000, -384.000000)" fill="#5382AF">
            <path d="M654.53554,467.911067 L671.571992,450.838794 L604.791723,384 L538,450.838794 L555.048263,467.911067 C555.048263,467.911067 576.899706,446.045175 592.734557,430.198977 L592.734557,523.247756 C569.207245,528.717273 551.64534,549.707756 551.64534,574.91625 C551.64534,604.304072 575.436095,628.110621 604.791365,628.110621 C634.136255,628.110621 657.950634,604.304072 657.950634,574.91625 C657.950634,549.707756 640.364031,528.717273 616.849604,523.247756 L616.849604,430.198977 C632.684455,446.045175 654.53554,467.911067 654.53554,467.911067 L654.53554,467.911067 Z M794.161708,441.213589 C794.161708,411.824335 770.371669,388.0425 741.040738,388.0425 C711.672582,388.0425 687.882543,411.824693 687.882543,441.213589 C687.882543,466.422083 705.455187,487.412924 728.970687,492.882083 L728.970687,546.241221 L688.470279,546.241221 L688.470279,570.384825 L728.970687,570.384825 L728.970687,628.110621 L753.09862,628.110621 L753.09862,570.384825 L793.573972,570.384825 L793.573972,546.241221 L753.09862,546.241221 L753.09862,492.882083 C776.60016,487.412924 794.161708,466.422083 794.161708,441.213589 L794.161708,441.213589 Z" id="情人节"></path>
        </g>
    </g>
</svg>