<?xml version="1.0" encoding="UTF-8" standalone="no"?>
<svg width="219px" height="224px" viewBox="0 0 219 224" version="1.1" xmlns="http://www.w3.org/2000/svg" xmlns:xlink="http://www.w3.org/1999/xlink">
    <!-- Generator: Sketch 40.3 (33839) - http://www.bohemiancoding.com/sketch -->
    <title>暑假</title>
    <desc>Created with Sketch.</desc>
    <defs></defs>
    <g id="Page-1" stroke="none" stroke-width="1" fill="none" fill-rule="evenodd">
        <g id="Artboard" transform="translate(-576.000000, -380.000000)" fill="#5382AF">
            <path d="M711.433965,579.850402 L699.571354,579.850402 L705.153775,596.901765 C705.915052,599.310477 708.135101,600.831582 710.482438,600.831582 C711.053191,600.831582 711.624216,600.704937 712.195242,600.514833 C715.176567,599.56404 716.762628,596.33118 715.811101,593.351883 L711.433965,579.850402 L711.433965,579.850402 Z M738.013771,601.402167 L750.003399,601.402167 L750.066906,579.533381 L738.013771,579.470194 L738.013771,601.402167 L738.013771,601.402167 Z M688.406511,545.424664 L700.205614,545.424664 L676.226632,471.451271 L758.694161,444.448038 C761.485508,443.497245 762.944553,440.517948 762.119769,437.729027 C761.358493,435.510419 759.328695,434.115686 757.108373,434.115686 L579.929929,492.242347 C578.153617,493.510162 577.265598,495.918874 577.963366,498.137209 C578.724643,500.355818 580.754441,501.813737 582.974762,501.813737 C583.48228,501.813737 584.053305,501.75055 584.560823,501.560174 L665.575576,475.00088 L688.406511,545.424664 L688.406511,545.424664 Z M788.763083,522.224604 C784.005445,519.94281 778.296008,521.971041 776.075959,526.788466 C775.948943,527.105487 763.452071,552.967551 727.102687,552.967551 L670.644211,552.967551 C635.500385,552.967551 612.345915,558.482478 590.523746,587.577401 C587.351897,591.824241 588.113174,597.90948 592.300058,601.14234 C594.076097,602.473341 596.106168,603.107385 598.072731,603.107385 C600.990821,603.107385 603.781895,601.776111 605.685223,599.30394 C621.353944,578.386219 635.944395,572.30098 670.644211,572.30098 L727.102687,572.30098 C775.377918,572.30098 792.569465,536.613691 793.330469,535.092313 C795.55079,530.274889 793.520992,524.506671 788.763083,522.224604 L788.763083,522.224604 Z M638.101209,390.56849 C640.321531,389.681156 642.472075,388.857008 644.698666,388.159778 C646.030695,387.71611 647.426505,387.33563 648.758534,386.955421 L647.743499,383.912666 C646.791972,380.933641 643.620123,379.285618 640.702032,380.299597 C637.720707,381.25039 636.134646,384.48325 637.086174,387.462547 L638.101209,390.56849 L638.101209,390.56849 Z M576.060311,485.079396 C578.724643,446.286165 602.767133,411.042816 639.877521,396.019958 C642.034334,395.068892 644.254656,394.245017 646.41147,393.547787 C647.743499,393.10412 649.139309,392.723639 650.534846,392.343431 L650.534846,392.406617 C690.18255,381.25039 731.226063,395.512832 756.220081,426.002216 L711.497473,440.708052 C693.861916,410.218668 668.931407,392.723639 648.314525,399.44265 C627.76115,406.161933 617.61107,435.193397 620.782919,470.437019 L576.060311,485.079396 L576.060311,485.079396 Z" id="暑假"></path>
        </g>
    </g>
</svg>