<?xml version="1.0" encoding="UTF-8" standalone="no"?>
<svg width="490px" height="353px" viewBox="0 0 490 353" version="1.1" xmlns="http://www.w3.org/2000/svg" xmlns:xlink="http://www.w3.org/1999/xlink">
    <!-- Generator: Sketch 40.3 (33839) - http://www.bohemiancoding.com/sketch -->
    <title>Space station</title>
    <desc>Created with Sketch.</desc>
    <defs></defs>
    <g id="Page-1" stroke="none" stroke-width="1" fill="none" fill-rule="evenodd">
        <g id="Artboard" transform="translate(-155.000000, -202.000000)" fill="#C879A9">
            <path d="M642.990905,305.622175 C634.936242,277.253182 601.12011,258.276128 552.878888,250.325134 C560.07603,258.748053 566.586024,267.763711 572.305137,277.307296 C599.173713,284.936123 617.358945,296.789624 621.55602,311.562768 C623.989645,320.117198 621.903681,330.152843 615.357852,341.362009 C608.294619,353.470349 595.57577,367.011455 577.85702,380.638135 C577.867079,379.766647 577.988415,378.931654 577.988415,378.058278 C577.988415,280.820307 498.245865,202 399.89561,202 C301.545984,202 221.80595,280.820307 221.80595,378.058278 C221.80595,407.836754 229.348238,435.852118 242.545513,460.435012 C207.326165,453.342292 183.174749,439.919483 178.238344,422.53502 C175.804719,413.970522 177.890683,403.968226 184.436512,392.735779 C188.000505,386.64354 193.456829,380.109579 199.783877,373.457323 C200.044151,362.027296 201.195266,350.808062 203.337811,339.921064 C167.296777,369.052688 148.916025,400.68992 156.808489,428.478759 C165.535212,459.190389 204.375135,478.930073 259.072284,485.551497 C291.649914,527.191025 342.530968,554.119073 399.901269,554.119073 C487.229485,554.119073 559.72837,491.932554 574.926737,409.932102 C625.024454,376.810508 652.34128,338.516615 642.990905,305.622175 L642.990905,305.622175 Z M399.901269,532.111002 C357.335152,532.111002 318.791338,515.195947 290.671057,487.837503 C294.464519,487.955799 298.268041,488.040745 302.18221,488.040745 C340.900797,488.040745 384.530642,482.636258 429.512152,471.270414 C474.230873,459.963717 514.502303,444.148561 547.926767,426.019715 C527.521662,487.590214 469.008418,532.111002 399.901269,532.111002 L399.901269,532.111002 Z M554.467566,396.743996 C521.748482,417.055654 477.858992,436.344807 424.008677,449.958275 C382.344089,460.489127 340.223708,466.043371 302.179695,466.043371 C291.178403,466.043371 280.875576,466.986592 270.920409,466.0849 C253.984367,441.43216 244.070065,410.099478 244.070065,378.055761 C244.070065,292.982761 313.831672,224.005554 399.898754,224.005554 C485.965207,224.005554 555.729329,292.982761 555.729329,378.055761 C555.729329,384.398435 555.229527,390.609599 554.467566,396.743996 L554.467566,396.743996 Z M321.958633,422.073791 C297.40549,422.073791 277.435432,402.329073 277.435432,378.058278 C277.435432,353.79 297.40549,334.044652 321.958633,334.044652 C346.514292,334.044652 366.481834,353.792517 366.481834,378.058278 C366.481834,402.329073 346.514292,422.073791 321.958633,422.073791 L321.958633,422.073791 Z M321.958633,356.052724 C309.685519,356.052724 299.697033,365.921622 299.697033,378.058278 C299.697033,390.197451 309.685519,400.06572 321.958633,400.06572 C334.231119,400.06572 344.220234,390.197451 344.220234,378.058278 C344.220234,365.921622 334.231119,356.052724 321.958633,356.052724 L321.958633,356.052724 Z M416.569493,301.034433 C401.222128,301.034433 388.743435,288.691389 388.743435,273.526232 C388.743435,258.358558 401.222128,246.015513 416.569493,246.015513 C431.916858,246.015513 444.39555,258.356041 444.39555,273.526232 C444.39555,288.691389 431.919372,301.034433 416.569493,301.034433 L416.569493,301.034433 Z M416.569493,268.021068 C413.505301,268.021068 411.001892,270.487663 411.001892,273.523715 C411.001892,276.55725 413.502786,279.023845 416.569493,279.023845 C419.636199,279.023845 422.13395,276.55725 422.13395,273.523715 C422.13395,270.487663 419.636199,268.021068 416.569493,268.021068 L416.569493,268.021068 Z M477.789208,400.06572 C465.516723,400.06572 455.527608,390.194934 455.527608,378.058278 C455.527608,365.921622 465.516723,356.052724 477.789208,356.052724 C490.059808,356.052724 500.050809,365.924139 500.050809,378.058278 C500.050809,390.194934 490.059808,400.06572 477.789208,400.06572 L477.789208,400.06572 Z" id="Space-station"></path>
        </g>
    </g>
</svg>